<svg width="22" height="18" viewBox="0 0 22 18" fill="none" xmlns="http://www.w3.org/2000/svg">
<path d="M19.5364 16.5H20.0364V16V4V3.5H19.5364H2.44205H1.94205V4V16V16.5H2.44205H19.5364ZM0.5 17.5V0.5H21.4785V17.5H0.5ZM12.3208 10C12.3208 10.4651 11.8246 11 10.9892 11C10.1539 11 9.6577 10.4651 9.6577 10C9.6577 9.53487 10.1539 9 10.9892 9C11.8246 9 12.3208 9.53487 12.3208 10ZM4.22672 10C5.34358 7.97696 7.91654 6.5 10.9892 6.5C14.0619 6.5 16.6349 7.97696 17.7518 10C16.6349 12.023 14.0619 13.5 10.9892 13.5C7.91654 13.5 5.34358 12.023 4.22672 10ZM8.51395 12.1546C9.18437 12.7037 10.0758 13 10.9892 13C11.9027 13 12.7941 12.7037 13.4645 12.1546C14.1377 11.6032 14.5418 10.8315 14.5418 10C14.5418 9.16846 14.1377 8.39675 13.4645 7.84541C12.7941 7.29634 11.9027 7 10.9892 7C10.0758 7 9.18437 7.29634 8.51395 7.84541C7.84074 8.39675 7.43668 9.16846 7.43668 10C7.43668 10.8315 7.84074 11.6032 8.51395 12.1546Z" fill="white" stroke="white"/>
</svg>
