<svg width="16" height="16" viewBox="0 0 16 16" fill="#ef4444" xmlns="http://www.w3.org/2000/svg">
<path d="M7.9375 15.0313C7.79268 15.0306 7.65024 14.9943 7.52266 14.9258C7.22031 14.75 0.0625025 10.686 0.0625025 5.46877C0.0615306 4.55432 0.33918 3.66127 0.858473 2.90857C1.37777 2.15587 2.11405 1.57923 2.96927 1.25547C3.8245 0.931708 4.75806 0.876182 5.64563 1.09629C6.5332 1.31639 7.33265 1.80168 7.9375 2.48752C8.54236 1.80168 9.3418 1.31639 10.2294 1.09629C11.1169 0.876182 12.0505 0.931708 12.9057 1.25547C13.761 1.57923 14.4972 2.15587 15.0165 2.90857C15.5358 3.66127 15.8135 4.55432 15.8125 5.46877C15.8125 10.686 8.65469 14.75 8.35235 14.9258C8.22476 14.9943 8.08233 15.0306 7.9375 15.0313ZM4.5625 2.65627C3.81658 2.65627 3.10121 2.95259 2.57376 3.48004C2.04632 4.00748 1.75 4.72285 1.75 5.46877C1.75 9.06877 6.48907 12.3031 7.9375 13.2031C9.38594 12.3031 14.125 9.06877 14.125 5.46877C14.1244 4.81919 13.8989 4.18986 13.4869 3.68767C13.0748 3.18548 12.5017 2.84138 11.8648 2.71383C11.2278 2.58628 10.5664 2.68313 9.99276 2.98794C9.41914 3.29275 8.96871 3.78672 8.71797 4.38596C8.6544 4.54071 8.54626 4.67307 8.4073 4.76623C8.26833 4.85938 8.1048 4.90911 7.9375 4.90911C7.7702 4.90911 7.60668 4.85938 7.46771 4.76623C7.32874 4.67307 7.2206 4.54071 7.15703 4.38596C6.94419 3.87332 6.58406 3.43534 6.12221 3.12745C5.66037 2.81955 5.11757 2.65558 4.5625 2.65627Z" fill="#ef4444"/>
</svg>
