<svg width="17" height="20" viewBox="0 0 17 20" fill="none" xmlns="http://www.w3.org/2000/svg">
<path d="M13.5297 16.5147H12.037C11.9848 16.5147 11.9331 16.525 11.8848 16.545C11.8365 16.565 11.7926 16.5943 11.7557 16.6312C11.7187 16.6682 11.6894 16.712 11.6694 16.7603C11.6494 16.8086 11.6391 16.8603 11.6391 16.9126H11.6375V17.6049H2.29011V6.7643H6.3664C6.47193 6.7643 6.57314 6.72238 6.64776 6.64776C6.72238 6.57314 6.7643 6.47193 6.7643 6.3664V2.29011H11.6375V7.03432H11.6394C11.6396 7.13969 11.6817 7.24066 11.7562 7.31508C11.8308 7.3895 11.9319 7.4313 12.0373 7.4313H13.53C13.7494 7.4313 13.9272 7.25374 13.9276 7.03432V1.3225H13.9265V0.3979C13.9265 0.29237 13.8846 0.191163 13.81 0.116542C13.7353 0.0419215 13.6341 0 13.5286 0H5.9685L0 5.9685V19.4969C0 19.7167 0.17802 19.8948 0.3979 19.8948H13.5284C13.6339 19.8948 13.7351 19.8528 13.8097 19.7782C13.8843 19.7036 13.9263 19.6024 13.9263 19.4969V18.9338H13.9274V16.9121C13.9274 16.8599 13.9171 16.8082 13.8971 16.76C13.8772 16.7117 13.8479 16.6679 13.8109 16.631C13.774 16.5941 13.7302 16.5648 13.6819 16.5449C13.6337 16.5249 13.582 16.5147 13.5297 16.5147Z" fill="#3A3A3A"/>
<path d="M15.7687 10.7666H13.9782V8.97602C13.9782 8.8705 13.9363 8.76929 13.8617 8.69467C13.787 8.62005 13.6858 8.57813 13.5803 8.57812H11.9887C11.9364 8.57813 11.8847 8.58842 11.8364 8.60841C11.7881 8.62841 11.7443 8.65772 11.7073 8.69467C11.6704 8.73162 11.6411 8.77548 11.6211 8.82375C11.6011 8.87203 11.5908 8.92377 11.5908 8.97602V10.7666H9.80024C9.69471 10.7666 9.59351 10.8085 9.51889 10.8831C9.44426 10.9577 9.40234 11.0589 9.40234 11.1645V12.7561C9.40234 12.9757 9.58036 13.154 9.80024 13.154H11.5908V14.9445C11.5908 14.9968 11.601 15.0486 11.621 15.0969C11.641 15.1452 11.6703 15.1891 11.7073 15.226C11.7442 15.263 11.7881 15.2923 11.8364 15.3123C11.8847 15.3324 11.9364 15.3427 11.9887 15.3427H13.5803C13.6326 15.3427 13.6843 15.3324 13.7326 15.3123C13.7809 15.2923 13.8248 15.263 13.8617 15.226C13.8987 15.1891 13.928 15.1452 13.948 15.0969C13.968 15.0486 13.9782 14.9968 13.9782 14.9445V13.154H15.7687C15.8743 13.154 15.9755 13.1121 16.0501 13.0374C16.1247 12.9628 16.1666 12.8616 16.1666 12.7561V11.1645C16.1666 11.0589 16.1247 10.9577 16.0501 10.8831C15.9755 10.8085 15.8743 10.7666 15.7687 10.7666Z" fill="#3A3A3A"/>
</svg>
