<svg width="18" height="18" viewBox="0 0 18 18" fill="none" xmlns="http://www.w3.org/2000/svg">
<path d="M0.5 15.75V12.875H1.75V15.75V16.25H2.25H15.75H16.25V15.75V12.875H17.5V15.75C17.5 16.2351 17.3333 16.6381 16.9861 16.9861C16.6381 17.3333 16.2351 17.5 15.75 17.5H2.25C1.76479 17.5 1.36219 17.3332 1.01505 16.9861C0.666983 16.638 0.5 16.235 0.5 15.75ZM4.07596 7.86885L4.95626 6.95711L7.52145 9.5223L8.375 10.3759V9.16875V0.5H9.625V9.16875V10.3759L10.4786 9.5223L13.0437 6.95711L13.924 7.86885L9 12.7929L4.07596 7.86885Z" fill="#3A3A3A" stroke="#3A3A3A"/>
</svg>
