<svg width="20" height="20" viewBox="0 0 20 20" fill="none" xmlns="http://www.w3.org/2000/svg">
<path d="M5.05 14.05H3.925C3.14924 14.05 2.40526 13.7418 1.85671 13.1933C1.30817 12.6447 1 11.9008 1 11.125V3.925C1 3.14924 1.30817 2.40526 1.85671 1.85671C2.40526 1.30817 3.14924 1 3.925 1H11.125C11.9008 1 12.6447 1.30817 13.1933 1.85671C13.7418 2.40526 14.05 3.14924 14.05 3.925V5.05H12.5632L12.7 4.9132V3.925C12.7 3.7171 12.6595 3.5182 12.5857 3.3355L10.873 5.05H8.9641L11.593 2.4202C11.4417 2.37345 11.2842 2.34979 11.1259 2.35H9.973L2.35 9.9721V11.125C2.35 11.287 2.3743 11.4445 2.4202 11.593L5.05 8.9623V10.8712L3.3355 12.5857C3.5182 12.6586 3.7171 12.6991 3.925 12.6991H4.9132L5.05 12.5623V14.05ZM8.0632 2.35H6.3721L2.35 6.3721V8.0632L8.0632 2.35ZM4.4632 2.35H3.925C3.50728 2.35 3.10668 2.51594 2.81131 2.81131C2.51594 3.10668 2.35 3.50728 2.35 3.925V4.4632L4.4632 2.35ZM19 16.075C19 16.4591 18.9243 16.8395 18.7773 17.1943C18.6304 17.5492 18.4149 17.8717 18.1433 18.1433C17.8717 18.4149 17.5492 18.6304 17.1943 18.7773C16.8395 18.9243 16.4591 19 16.075 19H8.875C8.49088 19 8.11053 18.9243 7.75565 18.7773C7.40077 18.6304 7.07832 18.4149 6.80671 18.1433C6.5351 17.8717 6.31965 17.5492 6.17265 17.1943C6.02566 16.8395 5.95 16.4591 5.95 16.075V8.875C5.95 8.09924 6.25817 7.35526 6.80671 6.80671C7.35526 6.25817 8.09924 5.95 8.875 5.95H16.075C16.4591 5.95 16.8395 6.02566 17.1943 6.17265C17.5492 6.31965 17.8717 6.5351 18.1433 6.80671C18.4149 7.07832 18.6304 7.40077 18.7773 7.75565C18.9243 8.11053 19 8.49088 19 8.875V16.075ZM16.075 17.65C16.4927 17.65 16.8933 17.4841 17.1887 17.1887C17.4841 16.8933 17.65 16.4927 17.65 16.075V8.875C17.65 8.45728 17.4841 8.05668 17.1887 7.76131C16.8933 7.46594 16.4927 7.3 16.075 7.3H8.875C8.45728 7.3 8.05668 7.46594 7.76131 7.76131C7.46594 8.05668 7.3 8.45728 7.3 8.875V16.075C7.3 16.9444 8.0056 17.65 8.875 17.65H16.075Z" fill="#3A3A3A" stroke="#3A3A3A" stroke-width="0.5"/>
</svg>
