<svg width="19" height="18" viewBox="0 0 19 18" fill="none" xmlns="http://www.w3.org/2000/svg">
<path d="M7.22983 17.87C5.40451 17.87 3.83812 17.2446 2.53067 15.9937C1.22246 14.7428 0.568359 13.1841 0.568359 11.3177C0.568359 9.45125 1.22246 7.89258 2.53067 6.64168C3.83812 5.39078 5.40451 4.76533 7.22983 4.76533H14.3429L11.4074 1.66787L12.988 0L18.6334 5.95667L12.988 11.9133L11.4074 10.2455L14.3429 7.148H7.22983C6.04431 7.148 5.01423 7.54511 4.13959 8.33933C3.26418 9.13356 2.82648 10.1263 2.82648 11.3177C2.82648 12.509 3.26418 13.5018 4.13959 14.296C5.01423 15.0902 6.04431 15.4873 7.22983 15.4873H15.2462V17.87H7.22983Z" fill="#3A3A3A"/>
</svg>
