<svg width="17" height="20" viewBox="0 0 17 20" fill="none" xmlns="http://www.w3.org/2000/svg">
<path d="M7.26152 13.2727V13.3227H7.31152H9.30956H9.35956V13.2727V4.23512L10.8763 5.47732L10.9083 5.5035L10.94 5.47704L12.3386 4.31113L12.3851 4.27239L12.3383 4.23404L8.34222 0.961317L8.31054 0.935372L8.27886 0.961317L4.28277 4.23404L4.23595 4.27239L4.28243 4.31113L5.68107 5.47704L5.7128 5.5035L5.74476 5.47732L7.26152 4.23512V13.2727ZM0.268359 19V19.05H0.318359H16.3027H16.3527V19V6.72727V6.67727H16.3027H11.3076H11.2576V6.72727V8.36364V8.41364H11.3076H14.2547V17.3136H2.3664V8.41364H5.31347H5.36347V8.36364V6.72727V6.67727H5.31347H0.318359H0.268359V6.72727V19Z" fill="#3A3A3A" stroke="#3A3A3A" stroke-width="0.1"/>
</svg>
