<svg width="19" height="18" viewBox="0 0 19 18" fill="none" xmlns="http://www.w3.org/2000/svg">
<path d="M3.38719 17.87V15.4873H11.4035C12.5891 15.4873 13.6191 15.0902 14.4938 14.296C15.3692 13.5018 15.8069 12.509 15.8069 11.3177C15.8069 10.1263 15.3692 9.13356 14.4938 8.33933C13.6191 7.54511 12.5891 7.148 11.4035 7.148H4.29044L7.226 10.2455L5.64531 11.9133L0 5.95667L5.64531 0L7.226 1.66787L4.29044 4.76533H11.4035C13.2289 4.76533 14.7956 5.39078 16.1038 6.64168C17.4113 7.89258 18.065 9.45125 18.065 11.3177C18.065 13.1841 17.4113 14.7428 16.1038 15.9937C14.7956 17.2446 13.2289 17.87 11.4035 17.87H3.38719Z" fill="#3A3A3A"/>
</svg>
